<?xml version="1.0" encoding="utf-8"?>
<!-- Generator: Adobe Illustrator 24.2.3, SVG Export Plug-In . SVG Version: 6.00 Build 0)  -->
<svg version="1.1" id="Layer_1" xmlns="http://www.w3.org/2000/svg" xmlns:xlink="http://www.w3.org/1999/xlink" x="0px" y="0px"
	 viewBox="0 0 32 32" style="enable-background:new 0 0 32 32;" xml:space="preserve">
<style type="text/css">
	.st0{fill:#87BCDE;}
	.st1{fill-rule:evenodd;clip-rule:evenodd;fill:#FFFFFF;}
</style>
<circle class="st0" cx="16" cy="16" r="16"/>
<path class="st1" d="M23.97,21.17l-7.17-5.37v-0.76c1.38-0.41,2.33-1.81,2.02-3.38c-0.22-1.09-1.08-2-2.18-2.25
	c-1.9-0.43-3.6,1.01-3.6,2.84h1.67c0-0.69,0.56-1.25,1.25-1.25s1.25,0.56,1.25,1.25c0,0.7-0.58,1.27-1.28,1.25
	c-0.45-0.01-0.81,0.38-0.81,0.82v1.47l-7.17,5.37c-0.64,0.48-0.3,1.5,0.5,1.5h15C24.27,22.67,24.61,21.65,23.97,21.17z M10.97,21
	l5-3.75l5,3.75H10.97z"/>
</svg>
