<svg xmlns="http://www.w3.org/2000/svg" xmlns:xlink="http://www.w3.org/1999/xlink" width="320" height="253" viewBox="0 0 320 253">
    <defs>
        <linearGradient id="75mw0rlysb" x1="50%" x2="50%" y1="0%" y2="100%">
            <stop offset="0%" stop-color="#13D3D5"/>
            <stop offset="100%" stop-color="#5045AB"/>
        </linearGradient>
        <path id="wns1mtcw2a" d="M0 0h320v234.162c-19.578 12.559-48.911 18.634-88 18.225-58.633-.613-84.128-31.614-144-31.614-38.03 0-67.362 4.742-88 14.227V0z"/>
    </defs>
    <g fill="none" fill-rule="evenodd">
        <mask id="4ee9abhhrc" fill="#fff">
            <use xlink:href="#wns1mtcw2a"/>
        </mask>
        <use fill="url(#75mw0rlysb)" xlink:href="#wns1mtcw2a"/>
        <path fill="#FFF" fill-opacity=".5" style="mix-blend-mode:soft-light" d="M336.5 95L361 175 280 167z" mask="url(#4ee9abhhrc)" transform="rotate(29 320.5 135)"/>
        <circle fill="#FFF" fill-opacity=".5" style="mix-blend-mode:soft-light" cx="55" cy="134" r="14" mask="url(#4ee9abhhrc)"/>
        <circle fill="#FFF" fill-opacity=".5" style="mix-blend-mode:soft-light" cx="12" r="88" mask="url(#4ee9abhhrc)"/>
        <circle fill="#FFF" fill-opacity=".5" style="mix-blend-mode:soft-light" cx="232" cy="264" r="88" mask="url(#4ee9abhhrc)"/>
        <path fill="#FFF" fill-opacity=".5" style="mix-blend-mode:soft-light" d="M182.5 -1L210 43 155 43z" mask="url(#4ee9abhhrc)" transform="rotate(137 182.5 21)"/>
        <path fill="#FFF" fill-opacity=".5" style="mix-blend-mode:soft-light" d="M102 170H135V179H102z" mask="url(#4ee9abhhrc)" transform="rotate(-12 118.5 174.5)"/>
        <path fill="#FFF" fill-opacity=".5" style="mix-blend-mode:soft-light" d="M287 7H331V31H287z" mask="url(#4ee9abhhrc)" transform="rotate(34 309 19)"/>
        <path fill="#FFF" fill-opacity=".5" fill-rule="nonzero" d="M39.053 202.004v-2.72c1.695-.174 3.026-.744 3.992-1.71.966-.966 1.45-2.224 1.45-3.773 0-.83-.128-1.557-.384-2.18-.255-.625-.624-1.181-1.107-1.669-.483-.487-1.076-.925-1.777-1.312-.702-.388-1.598-.8-2.687-1.238-1.09-.437-1.834-.866-2.235-1.285-.401-.42-.602-.975-.602-1.668 0-.747.205-1.333.615-1.757.41-.423.99-.635 1.737-.635.756 0 1.36.27 1.811.813.451.542.677 1.36.677 2.454h3.951c0-1.777-.456-3.224-1.367-4.34-.912-1.117-2.174-1.79-3.787-2.017V176h-2.188v2.926c-1.631.164-2.94.738-3.923 1.722-.985.985-1.477 2.247-1.477 3.788 0 .893.144 1.663.43 2.31.288.647.689 1.21 1.204 1.689.515.478 1.132.902 1.852 1.271.72.37 1.577.74 2.57 1.114.994.374 1.698.782 2.113 1.224.415.442.622 1.037.622 1.784 0 .72-.232 1.292-.697 1.716-.465.424-1.099.636-1.9.636-.967 0-1.707-.29-2.222-.868-.515-.58-.773-1.411-.773-2.496H31c0 1.869.513 3.366 1.538 4.492 1.025 1.125 2.472 1.788 4.34 1.989v2.707h2.175z" style="mix-blend-mode:soft-light" mask="url(#4ee9abhhrc)" transform="rotate(-13 37.747 189.002)"/>
        <path fill="#FFF" fill-opacity=".5" fill-rule="nonzero" d="M260.213 89.426c1.203 0 2.37-.132 3.5-.397l-.492-3.308c-.775.282-1.64.424-2.598.424-1.413 0-2.454-.338-3.124-1.012-.67-.675-1.028-1.682-1.073-3.022h4.58v-2.078h-4.58v-1.695h4.58V76.26h-4.553c.246-2.634 1.659-3.951 4.238-3.951.83 0 1.673.145 2.53.437l.492-3.322c-1.194-.283-2.27-.424-3.227-.424-2.388 0-4.304.636-5.749 1.907-1.444 1.272-2.244 3.056-2.4 5.353H250v2.078h2.31v1.695H250v2.078h2.31c.073 2.297.81 4.09 2.209 5.38s3.297 1.935 5.694 1.935z" style="mix-blend-mode:soft-light" mask="url(#4ee9abhhrc)" transform="rotate(10 256.856 79.213)"/>
        <path fill="#FFF" fill-opacity=".5" fill-rule="nonzero" style="mix-blend-mode:soft-light" d="M120.365 49.906L120.365 46.105 124.303 46.105 124.303 43.727 120.365 43.727 120.365 42.154 124.303 42.154 124.303 39.762 121.322 39.762 125.725 30 121.445 30 118.383 37.711 115.307 30 111 30 115.416 39.762 112.08 39.762 112.08 42.154 116.264 42.154 116.264 43.727 112.08 43.727 112.08 46.105 116.264 46.105 116.264 49.906z" mask="url(#4ee9abhhrc)" transform="rotate(-7 118.362 39.953)"/>
    </g>
</svg>
