<?xml version="1.0" encoding="utf-8"?>
<!-- Generator: Adobe Illustrator 24.2.3, SVG Export Plug-In . SVG Version: 6.00 Build 0)  -->
<svg version="1.1" id="Layer_1" xmlns="http://www.w3.org/2000/svg" xmlns:xlink="http://www.w3.org/1999/xlink" x="0px" y="0px"
	 viewBox="0 0 32 32" style="enable-background:new 0 0 32 32;" xml:space="preserve">
<style type="text/css">
	.st0{fill:#5087EC;}
	.st1{fill-rule:evenodd;clip-rule:evenodd;fill:#FFFFFF;}
</style>
<circle class="st0" cx="16" cy="16" r="16"/>
<path class="st1" d="M23.05,20.82v0.83c0,0.92-0.75,1.67-1.67,1.67H9.72c-0.92,0-1.67-0.75-1.67-1.67V9.99
	c0-0.92,0.74-1.67,1.67-1.67h11.67c0.92,0,1.67,0.75,1.67,1.67v0.83h-7.5c-0.93,0-1.67,0.75-1.67,1.67v6.67
	c0,0.92,0.74,1.67,1.67,1.67H23.05z M15.55,19.15h8.33v-6.67h-8.33V19.15z M18.89,17.07c-0.69,0-1.25-0.56-1.25-1.25
	s0.56-1.25,1.25-1.25c0.69,0,1.25,0.56,1.25,1.25S19.58,17.07,18.89,17.07z"/>
</svg>
