<?xml version="1.0" encoding="utf-8"?>
<!-- Generator: Adobe Illustrator 24.2.3, SVG Export Plug-In . SVG Version: 6.00 Build 0)  -->
<svg version="1.1" id="Layer_1" xmlns="http://www.w3.org/2000/svg" xmlns:xlink="http://www.w3.org/1999/xlink" x="0px" y="0px"
	 viewBox="0 0 32 32" style="enable-background:new 0 0 32 32;" xml:space="preserve">
<style type="text/css">
	.st0{fill:#13D3D5;}
	.st1{fill-rule:evenodd;clip-rule:evenodd;fill:#FFFFFF;}
</style>
<circle class="st0" cx="16" cy="16" r="16"/>
<path class="st1" d="M12.64,20.82c-0.92,0-1.66,0.75-1.66,1.67c0,0.92,0.74,1.67,1.66,1.67c0.92,0,1.67-0.75,1.67-1.67
	C14.3,21.57,13.55,20.82,12.64,20.82z M7.64,7.49v1.67H9.3l3,6.32l-1.13,2.04c-0.13,0.23-0.21,0.51-0.21,0.8
	c0,0.92,0.75,1.67,1.67,1.67h10v-1.67h-9.65c-0.12,0-0.21-0.09-0.21-0.21l0.03-0.1l0.75-1.36h6.21c0.63,0,1.17-0.34,1.46-0.86
	l2.98-5.41c0.07-0.12,0.1-0.26,0.1-0.4c0-0.46-0.38-0.83-0.83-0.83H11.15l-0.78-1.67C10.36,7.49,7.64,7.49,7.64,7.49z M20.97,20.82
	c-0.92,0-1.66,0.75-1.66,1.67c0,0.92,0.74,1.67,1.66,1.67c0.92,0,1.67-0.75,1.67-1.67C22.64,21.57,21.89,20.82,20.97,20.82z"/>
</svg>
