<?xml version="1.0" encoding="utf-8"?>
<!-- Generator: Adobe Illustrator 24.2.3, SVG Export Plug-In . SVG Version: 6.00 Build 0)  -->
<svg version="1.1" id="Layer_1" xmlns="http://www.w3.org/2000/svg" xmlns:xlink="http://www.w3.org/1999/xlink" x="0px" y="0px"
	 viewBox="0 0 32 32" style="enable-background:new 0 0 32 32;" xml:space="preserve">
<style type="text/css">
	.st0{fill:#FF2F64;}
	.st1{fill-rule:evenodd;clip-rule:evenodd;fill:#FFFFFF;}
</style>
<circle class="st0" cx="16" cy="16" r="16"/>
<path class="st1" d="M21.02,24.98h1.38c0.7,0,1.27-0.53,1.36-1.22l1.38-13.73h-4.17V6.66h-1.64v3.38h-4.14l0.25,1.95
	c1.43,0.39,2.76,1.1,3.56,1.88c1.2,1.18,2.02,2.41,2.02,4.41C21.02,18.28,21.02,24.98,21.02,24.98z M6.8,24.15v-0.83h12.53v0.83
	c0,0.46-0.38,0.83-0.84,0.83H7.65C7.18,24.98,6.8,24.61,6.8,24.15z M19.33,18.32c0-6.67-12.52-6.67-12.52,0H19.33z M6.82,19.99h12.5
	v1.67H6.82V19.99z"/>
</svg>
