<svg xmlns="http://www.w3.org/2000/svg" width="112" height="41" viewBox="0 0 112 41">
    <g fill="none">
        <path fill="#05668D" fill-opacity=".25" d="M16.645 17.48h4.286v13.142l.008.376c.075 1.555.664 2.897 1.8 4.08 1.201 1.251 2.607 1.856 4.303 1.856 1.711 0 3.196-.618 4.523-1.895 1.23-1.183 1.863-2.513 1.943-4.051l.008-.333V17.479h4.286v23.027h-4.286v-1.52l-.218.168c-1.464 1.071-3.253 1.68-5.336 1.816l-.486.024-.434.006c-2.917 0-5.413-1.017-7.406-3.026-1.88-1.896-2.883-4.209-2.983-6.872l-.008-.447V17.479zM98.258 4v36.506h-4.286v-2.411l-.155.132c-.257.207-.525.404-.804.592l-.426.275-.441.261C90.213 40.447 88.204 41 86.137 41c-3.368 0-6.276-1.188-8.644-3.534-2.366-2.344-3.567-5.194-3.567-8.474 0-3.279 1.2-6.13 3.567-8.473 2.368-2.346 5.276-3.534 8.644-3.534 2.127 0 4.176.56 6.125 1.669.424.24.825.5 1.203.778l.37.283.137.114V4h4.286zM10.59 9.302v4.031l-1.718.042c-1.245.062-2.281.515-3.17 1.385-.877.858-1.342 1.904-1.408 3.208l-.008.331v10.413h6.35v4.066h-6.35v7.728H0V18.269l.01-.442c.104-2.39 1.012-4.417 2.699-6.005 1.673-1.574 3.702-2.418 6.025-2.511l.439-.01h1.417zm45.796 7.683c2.916 0 5.413 1.017 7.405 3.026 1.881 1.896 2.883 4.209 2.983 6.872l.009.447v13.176h-4.286V27.363l-.008-.376c-.075-1.555-.665-2.897-1.802-4.081-1.2-1.25-2.606-1.855-4.301-1.855-1.712 0-3.196.617-4.523 1.894-1.23 1.183-1.864 2.513-1.943 4.052l-.009.333v13.176h-4.286V17.479h4.286v1.518l.219-.166c1.463-1.071 3.252-1.68 5.336-1.817l.486-.023.434-.006zm55.024.539v22.982h-4.285V17.524h4.285zm-25.318 3.527c-2.155 0-3.974.774-5.54 2.362-1.572 1.596-2.34 3.447-2.34 5.624 0 2.148.76 3.976 2.318 5.557 1.549 1.573 3.368 2.34 5.54 2.34 2.175 0 4.023-.771 5.619-2.352s2.374-3.405 2.374-5.545c0-2.143-.78-3.985-2.382-5.597-1.597-1.607-3.434-2.389-5.59-2.389zm23.175-10.896c1.638 0 2.733 1.01 2.733 2.618 0 1.607-1.095 2.617-2.733 2.617-1.637 0-2.732-1.01-2.732-2.617 0-1.608 1.095-2.618 2.732-2.618z" style="mix-blend-mode:multiply"/>
        <path fill="#FFF" d="M16.645 13.48h4.286v13.142l.008.376c.075 1.555.664 2.897 1.8 4.08 1.201 1.251 2.607 1.856 4.303 1.856 1.711 0 3.196-.618 4.523-1.895 1.23-1.183 1.863-2.513 1.943-4.051l.008-.333V13.479h4.286v23.027h-4.286v-1.52l-.218.168c-1.464 1.071-3.253 1.68-5.336 1.816l-.486.024-.434.006c-2.917 0-5.413-1.017-7.406-3.026-1.88-1.896-2.883-4.209-2.983-6.872l-.008-.447V13.479zM98.258 0v36.506h-4.286v-2.411l-.155.132c-.257.207-.525.404-.804.592l-.426.275-.441.261C90.213 36.447 88.204 37 86.137 37c-3.368 0-6.276-1.188-8.644-3.534-2.366-2.344-3.567-5.194-3.567-8.474 0-3.279 1.2-6.13 3.567-8.473 2.368-2.346 5.276-3.534 8.644-3.534 2.127 0 4.176.56 6.125 1.669.424.24.825.5 1.203.778l.37.283.137.114V0h4.286zM10.59 5.302v4.031l-1.718.042c-1.245.062-2.281.515-3.17 1.385-.877.858-1.342 1.904-1.408 3.208l-.008.331v10.413h6.35v4.066h-6.35v7.728H0V14.269l.01-.442c.104-2.39 1.012-4.417 2.699-6.005C4.382 6.248 6.41 5.404 8.734 5.311l.439-.01h1.417zm45.796 7.683c2.916 0 5.413 1.017 7.405 3.026 1.881 1.896 2.883 4.209 2.983 6.872l.009.447v13.176h-4.286V23.363l-.008-.376c-.075-1.555-.665-2.897-1.802-4.081-1.2-1.25-2.606-1.855-4.301-1.855-1.712 0-3.196.617-4.523 1.894-1.23 1.183-1.864 2.513-1.943 4.052l-.009.333v13.176h-4.286V13.479h4.286v1.518l.219-.166c1.463-1.071 3.252-1.68 5.336-1.817l.486-.023.434-.006zm55.024.539v22.982h-4.285V13.524h4.285zm-25.318 3.527c-2.155 0-3.974.774-5.54 2.362-1.572 1.596-2.34 3.447-2.34 5.624 0 2.148.76 3.976 2.318 5.557 1.549 1.573 3.368 2.34 5.54 2.34 2.175 0 4.023-.771 5.619-2.352s2.374-3.405 2.374-5.545c0-2.143-.78-3.985-2.382-5.597-1.597-1.607-3.434-2.389-5.59-2.389zm23.175-10.896c1.638 0 2.733 1.01 2.733 2.618 0 1.607-1.095 2.617-2.733 2.617-1.637 0-2.732-1.01-2.732-2.617 0-1.608 1.095-2.618 2.732-2.618z"/>
    </g>
</svg>
