<svg xmlns="http://www.w3.org/2000/svg" width="99" height="24" viewBox="0 0 99 24">
    <g fill="none" fill-rule="evenodd">
        <g fill="#FFF">
            <path d="M19 5v5h4v13H5.5c-1.869 0-3.395-1.464-3.495-3.308L2 19.5v-11c0-1.869 1.464-3.395 3.308-3.495L5.5 5H19zm24.334 4.015v7.814l.005.224c.044.924.392 1.722 1.061 2.426.708.744 1.536 1.103 2.535 1.103 1.009 0 1.884-.367 2.666-1.126.724-.704 1.098-1.494 1.145-2.41l.005-.197V9.015h2.525v13.691h-2.525v-.904l-.13.1c-.862.637-1.916 1-3.144 1.08l-.286.014-.256.004c-1.718 0-3.19-.605-4.364-1.8-1.108-1.127-1.699-2.502-1.758-4.085l-.005-.266V9.015h2.526zM88.902 1v21.706h-2.526v-1.433l-.09.078c-.152.123-.31.24-.475.352l-.25.164-.26.155c-1.14.65-2.324.978-3.542.978-1.985 0-3.698-.707-5.093-2.101-1.395-1.394-2.103-3.089-2.103-5.039 0-1.95.708-3.644 2.103-5.038 1.395-1.395 3.108-2.101 5.093-2.101 1.254 0 2.461.333 3.61.992.25.143.486.298.709.463l.218.168.08.068V1h2.526zM37.241 4.152V6.55l-1.013.025c-.734.036-1.344.305-1.868.823-.517.51-.79 1.132-.83 1.907l-.004.197v6.191h3.741v2.418h-3.741v4.595H31V9.484l.006-.262c.061-1.421.596-2.627 1.59-3.571.986-.936 2.182-1.438 3.55-1.493l.26-.006h.835zm26.986 4.569c1.719 0 3.19.605 4.364 1.799 1.109 1.127 1.7 2.502 1.758 4.086l.005.266v7.834H67.83v-7.814l-.005-.224c-.044-.925-.392-1.723-1.062-2.427-.707-.743-1.536-1.103-2.535-1.103-1.008 0-1.883.368-2.665 1.127-.724.703-1.098 1.494-1.145 2.409l-.005.198v7.834h-2.526V9.015h2.526v.902l.129-.099c.862-.637 1.917-.999 3.144-1.08l.287-.013.255-.004zm32.426.32v13.665h-2.526V9.041h2.526zM4 11.654V19.5c0 .778.596 1.42 1.356 1.493L5.5 21H21v-9H5.5c-.508 0-.999-.112-1.447-.32L4 11.655zm77.733-.516c-1.27 0-2.342.46-3.264 1.405-.927.95-1.38 2.05-1.38 3.344 0 1.277.448 2.364 1.366 3.304.913.935 1.985 1.391 3.264 1.391 1.283 0 2.371-.458 3.312-1.398.94-.94 1.399-2.024 1.399-3.297 0-1.274-.46-2.37-1.404-3.328-.94-.956-2.023-1.42-3.293-1.42zM17 7H5.5c-.778 0-1.42.596-1.493 1.356L4 8.5c0 .101.012.206.034.313.138.64.678 1.12 1.326 1.18L5.5 10H17V7zm78.39-2.34c.965 0 1.61.6 1.61 1.556 0 .956-.645 1.556-1.61 1.556-.965 0-1.61-.6-1.61-1.556 0-.956.645-1.556 1.61-1.556z"/>
        </g>
    </g>
</svg>
