<?xml version="1.0" encoding="utf-8"?>
<!-- Generator: Adobe Illustrator 24.2.3, SVG Export Plug-In . SVG Version: 6.00 Build 0)  -->
<svg version="1.1" id="Layer_1" xmlns="http://www.w3.org/2000/svg" xmlns:xlink="http://www.w3.org/1999/xlink" x="0px" y="0px"
	 viewBox="0 0 32 32" style="enable-background:new 0 0 32 32;" xml:space="preserve">
<style type="text/css">
	.st0{fill:#5045AB;}
	.st1{fill-rule:evenodd;clip-rule:evenodd;fill:#FFFFFF;}
</style>
<circle class="st0" cx="16" cy="16" r="16"/>
<path class="st1" d="M23.42,20.3l-1.99-1.77c0.43-1.97-1.13-3.54-2.85-3.54c-0.97,0-2.92,0.75-2.92,2.92c0,0.81,0.32,1.53,0.86,2.06
	l-0.59,0.59c-0.68-0.68-1.1-1.62-1.1-2.65c0-1.42,0.8-2.64,1.96-3.28c-0.58-0.3-1.23-0.48-1.9-0.48c-1.98,0-3.64,1.38-4.09,3.23
	c-1.04-0.31-1.8-1.26-1.8-2.39c0-1.38,1.12-2.5,2.5-2.5h2.08c1.15,0,2.08-0.93,2.08-2.08s-0.93-2.08-2.08-2.08h-1.25
	c-0.46,0-0.83,0.38-0.83,0.83c0,0.46,0.38,0.83,0.83,0.83h1.25c0.23,0,0.42,0.18,0.42,0.42c0,0.23-0.18,0.42-0.42,0.42h-2.08
	c-2.3,0-4.17,1.87-4.17,4.17c0,2.02,1.43,3.7,3.33,4.08v0.02c0,2.33,1.89,4.23,4.23,4.23h7.38C23.83,23.32,24.61,21.37,23.42,20.3z
	 M20.66,21.65c-0.46,0-0.83-0.38-0.83-0.83s0.38-0.83,0.83-0.83s0.83,0.38,0.83,0.83S21.12,21.65,20.66,21.65z"/>
</svg>
