<?xml version="1.0" encoding="utf-8"?>
<!-- Generator: Adobe Illustrator 24.2.3, SVG Export Plug-In . SVG Version: 6.00 Build 0)  -->
<svg version="1.1" id="Layer_1" xmlns="http://www.w3.org/2000/svg" xmlns:xlink="http://www.w3.org/1999/xlink" x="0px" y="0px"
	 viewBox="0 0 32 32" style="enable-background:new 0 0 32 32;" xml:space="preserve">
<style type="text/css">
	.st0{fill:#1DCA7F;}
	.st1{fill-rule:evenodd;clip-rule:evenodd;fill:#FFFFFF;}
</style>
<circle class="st0" cx="16" cy="16" r="16"/>
<path class="st1" d="M9.3,19.57c0,0.73,0.32,1.39,0.83,1.85v1.48c0,0.46,0.38,0.83,0.83,0.83h0.83c0.46,0,0.83-0.38,0.83-0.83v-0.83
	h6.67v0.83c0,0.46,0.38,0.83,0.83,0.83h0.83c0.46,0,0.83-0.38,0.83-0.83v-1.48c0.51-0.46,0.83-1.12,0.83-1.85v-8.33
	c0-2.92-2.98-3.33-6.67-3.33S9.3,8.32,9.3,11.24V19.57z M12.22,20.4c-0.69,0-1.25-0.56-1.25-1.25c0-0.69,0.56-1.25,1.25-1.25
	c0.69,0,1.25,0.56,1.25,1.25C13.47,19.85,12.91,20.4,12.22,20.4z M19.72,20.4c-0.69,0-1.25-0.56-1.25-1.25
	c0-0.69,0.56-1.25,1.25-1.25c0.69,0,1.25,0.56,1.25,1.25C20.97,19.85,20.41,20.4,19.72,20.4z M20.97,15.4h-10v-4.17h10V15.4z"/>
</svg>
