<?xml version="1.0" encoding="utf-8"?>
<!-- Generator: Adobe Illustrator 24.2.3, SVG Export Plug-In . SVG Version: 6.00 Build 0)  -->
<svg version="1.1" id="Layer_1" xmlns="http://www.w3.org/2000/svg" xmlns:xlink="http://www.w3.org/1999/xlink" x="0px" y="0px"
	 viewBox="0 0 32 32" style="enable-background:new 0 0 32 32;" xml:space="preserve">
<style type="text/css">
	.st0{fill:#FFBF46;}
	.st1{fill-rule:evenodd;clip-rule:evenodd;fill:#FFFFFF;}
</style>
<circle class="st0" cx="16" cy="16" r="16"/>
<path class="st1" d="M23.95,19.23l-0.91-6.38c-0.23-1.64-1.64-2.86-3.3-2.86H12.2c-1.66,0-3.07,1.22-3.3,2.86l-0.91,6.38
	c-0.18,1.28,0.81,2.42,2.1,2.42c0.57,0,1.1-0.23,1.5-0.63l1.88-1.87h5l1.88,1.88c0.4,0.4,0.94,0.63,1.5,0.63
	C23.15,21.65,24.14,20.51,23.95,19.23z M15.14,14.99h-1.67v1.67h-0.83v-1.67h-1.67v-0.83h1.67v-1.67h0.83v1.67h1.67V14.99z
	 M18.47,14.15c-0.46,0-0.83-0.38-0.83-0.83s0.38-0.83,0.83-0.83s0.83,0.38,0.83,0.83S18.93,14.15,18.47,14.15z M20.14,16.65
	c-0.46,0-0.83-0.38-0.83-0.83c0-0.46,0.38-0.83,0.83-0.83c0.46,0,0.83,0.38,0.83,0.83C20.97,16.28,20.6,16.65,20.14,16.65z"/>
</svg>
